<svg width="120" viewBox="0 0 2986 445" fill="none" xmlns="http://www.w3.org/2000/svg">
<path d="M576.9 437V8.65999H695.49C779.86 8.65999 833.55 39.93 833.55 118.99C833.55 195.1 779.86 235.22 695.49 235.22H598.73V437H576.9ZM598.73 216.34H687.82C766.29 216.34 809.95 185.07 809.95 118.99C809.95 52.32 766.29 28.13 687.82 28.13H598.73V216.34ZM814.67 437L689.59 228.73L714.37 226.37L840.04 437H814.67ZM1101.33 437V8.65999H1331.43V28.13H1123.16V198.64H1297.8V218.11H1123.16V417.53H1337.92V437H1101.33ZM1718.78 444.67C1655.65 444.67 1608.45 417.53 1576 379.77L1590.75 364.43C1622.02 401.01 1667.45 424.02 1718.78 424.02C1787.22 424.02 1830.88 386.85 1830.88 333.16C1830.88 275.93 1794.89 258.23 1751.82 238.76L1686.33 209.26C1649.16 192.74 1599.01 167.37 1599.01 104.24C1599.01 42.29 1650.93 0.989987 1720.55 0.989987C1772.47 0.989987 1812.59 24.59 1837.37 51.73L1823.8 66.48C1799.02 39.93 1764.21 21.64 1720.55 21.64C1660.96 21.64 1621.43 53.5 1621.43 101.88C1621.43 155.57 1666.27 175.04 1696.36 188.61L1761.85 218.11C1810.23 239.94 1852.71 265.31 1852.71 331.39C1852.71 396.88 1799.61 444.67 1718.78 444.67ZM2225.35 444.67C2162.22 444.67 2115.02 417.53 2082.57 379.77L2097.32 364.43C2128.59 401.01 2174.02 424.02 2225.35 424.02C2293.79 424.02 2337.45 386.85 2337.45 333.16C2337.45 275.93 2301.46 258.23 2258.39 238.76L2192.9 209.26C2155.73 192.74 2105.58 167.37 2105.58 104.24C2105.58 42.29 2157.5 0.989987 2227.12 0.989987C2279.04 0.989987 2319.16 24.59 2343.94 51.73L2330.37 66.48C2305.59 39.93 2270.78 21.64 2227.12 21.64C2167.53 21.64 2128 53.5 2128 101.88C2128 155.57 2172.84 175.04 2202.93 188.61L2268.42 218.11C2316.8 239.94 2359.28 265.31 2359.28 331.39C2359.28 396.88 2306.18 444.67 2225.35 444.67ZM2774.84 444.67C2673.36 444.67 2600.79 356.76 2600.79 221.65C2600.79 86.54 2673.36 0.989987 2774.84 0.989987C2876.32 0.989987 2948.89 86.54 2948.89 221.65C2948.89 356.76 2876.32 444.67 2774.84 444.67ZM2774.84 424.02C2865.11 424.02 2925.88 344.37 2925.88 221.65C2925.88 98.93 2865.11 21.64 2774.84 21.64C2684.57 21.64 2623.8 98.93 2623.8 221.65C2623.8 344.37 2684.57 424.02 2774.84 424.02Z" fill="white"/>
<mask id="mask0_9_2" style="mask-type:alpha" maskUnits="userSpaceOnUse" x="0" y="4" width="271" height="433">
<rect x="0.206421" y="4" width="270.416" height="433" fill="black"/>
</mask>
<g mask="url(#mask0_9_2)">
<rect x="-139.02" y="11.65" width="401" height="258" rx="129" stroke="#0063FF" stroke-width="16"/>
<path d="M7.99987 33.2198L148.005 273.277L8.11673 416.943L7.99987 33.2198Z" stroke="#0063FF" stroke-width="16"/>
</g>
</svg>
